<svg xmlns="http://www.w3.org/2000/svg" viewBox="0 0 128 128" role="img" aria-label="Baltan style monster">
  <defs>
    <linearGradient id="g" x1="0" y1="0" x2="1" y2="1">
      <stop offset="0%" stop-color="#ffab91"/>
      <stop offset="100%" stop-color="#d84315"/>
    </linearGradient>
  </defs>
  <rect width="128" height="128" rx="24" fill="#1a1008"/>
  <circle cx="64" cy="64" r="46" fill="url(#g)" opacity="0.2"/>
  <path d="M50 36h28v48H50z" fill="url(#g)"/>
  <path d="M36 48c-8 4-16 18-16 18l18-4zM92 48c8 4 16 18 16 18l-18-4z" fill="#ff8a65"/>
  <path d="M44 30h40l-6 14H50z" fill="#ffccbc"/>
  <circle cx="56" cy="54" r="4" fill="#fff59d"/>
  <circle cx="72" cy="54" r="4" fill="#fff59d"/>
  <path d="M58 68h12v8H58z" fill="#bf360c"/>
  <path d="M46 84h12v16H46zM70 84h12v16H70z" fill="#e64a19"/>
  <text x="64" y="118" text-anchor="middle" fill="#ffe0b2" font-size="11" font-family="Segoe UI, sans-serif">BALTAN</text>
</svg>
