<svg xmlns="http://www.w3.org/2000/svg" viewBox="0 0 128 128" role="img" aria-label="Eleking style monster">
  <defs>
    <linearGradient id="g" x1="0" y1="0" x2="1" y2="1">
      <stop offset="0%" stop-color="#ffab91"/>
      <stop offset="100%" stop-color="#e64a19"/>
    </linearGradient>
  </defs>
  <rect width="128" height="128" rx="24" fill="#1a1008"/>
  <circle cx="64" cy="64" r="46" fill="url(#g)" opacity="0.2"/>
  <ellipse cx="64" cy="68" rx="30" ry="34" fill="url(#g)"/>
  <path d="M48 40c0-12 8-20 16-20s16 8 16 20" fill="#ffccbc"/>
  <path d="M40 86c-10 8-18 20-18 20s18-2 28-10M88 86c10 8 18 20 18 20s-18-2-28-10" fill="#ff8a65"/>
  <circle cx="54" cy="64" r="4" fill="#fff59d"/>
  <circle cx="74" cy="64" r="4" fill="#fff59d"/>
  <path d="M58 76h12v8H58z" fill="#bf360c"/>
  <path d="M60 30l4 10 4-10-4-6z" fill="#ffd54f"/>
  <text x="64" y="118" text-anchor="middle" fill="#ffe0b2" font-size="11" font-family="Segoe UI, sans-serif">ELEKING</text>
</svg>
