<svg xmlns="http://www.w3.org/2000/svg" viewBox="0 0 128 128" role="img" aria-label="Gomora style monster">
  <defs>
    <linearGradient id="g" x1="0" y1="0" x2="1" y2="1">
      <stop offset="0%" stop-color="#ef9a9a"/>
      <stop offset="100%" stop-color="#b71c1c"/>
    </linearGradient>
  </defs>
  <rect width="128" height="128" rx="24" fill="#1a0d0d"/>
  <circle cx="64" cy="64" r="46" fill="url(#g)" opacity="0.2"/>
  <path d="M34 78c0-22 12-40 30-40s30 18 30 40v18H34z" fill="url(#g)"/>
  <path d="M44 48c-2-16 6-28 20-28s22 12 20 28" fill="#e57373"/>
  <path d="M40 40l-12-18 8 22zM88 40l12-18-8 22z" fill="#ffcdd2"/>
  <circle cx="52" cy="66" r="4" fill="#ffe082"/>
  <circle cx="76" cy="66" r="4" fill="#ffe082"/>
  <path d="M56 78h16v8H56z" fill="#5d1a1a"/>
  <text x="64" y="118" text-anchor="middle" fill="#ffcdd2" font-size="11" font-family="Segoe UI, sans-serif">GOMORA</text>
</svg>
