<svg xmlns="http://www.w3.org/2000/svg" viewBox="0 0 128 128" role="img" aria-label="Cosmos style hero">
  <defs>
    <linearGradient id="g" x1="0" y1="0" x2="1" y2="1">
      <stop offset="0%" stop-color="#80deea"/>
      <stop offset="100%" stop-color="#00acc1"/>
    </linearGradient>
  </defs>
  <rect width="128" height="128" rx="24" fill="#0b1a2b"/>
  <circle cx="64" cy="64" r="46" fill="url(#g)" opacity="0.22"/>
  <path d="M64 18c-17 0-31 12-31 29v19c0 9 5 15 12 19l4 21h30l4-21c7-4 12-10 12-19V47c0-17-14-29-31-29z" fill="url(#g)"/>
  <path d="M48 44h32v8H48z" fill="#006064"/>
  <circle cx="50" cy="48" r="4.5" fill="#e1f5fe"/>
  <circle cx="78" cy="48" r="4.5" fill="#e1f5fe"/>
  <circle cx="64" cy="64" r="8" fill="#4dd0e1" opacity="0.9"/>
  <path d="M40 32c-8-4-16-4-16-4s6 12 12 16M88 32c8-4 16-4 16-4s-6 12-12 16" fill="#26c6da"/>
  <text x="64" y="118" text-anchor="middle" fill="#b2ebf2" font-size="11" font-family="Segoe UI, sans-serif">COSMOS</text>
</svg>
