<svg xmlns="http://www.w3.org/2000/svg" viewBox="0 0 128 128" role="img" aria-label="Geed style hero">
  <defs>
    <linearGradient id="g" x1="0" y1="0" x2="1" y2="1">
      <stop offset="0%" stop-color="#80deea"/>
      <stop offset="100%" stop-color="#00838f"/>
    </linearGradient>
  </defs>
  <rect width="128" height="128" rx="24" fill="#0b1a2b"/>
  <circle cx="64" cy="64" r="46" fill="url(#g)" opacity="0.22"/>
  <path d="M64 17c-17 0-31 12-31 29v20c0 9 5 15 12 19l4 21h30l4-21c7-4 12-10 12-19V46c0-17-14-29-31-29z" fill="url(#g)"/>
  <path d="M46 42h36v9H46z" fill="#006064"/>
  <circle cx="50" cy="48" r="4.5" fill="#fff59d"/>
  <circle cx="78" cy="48" r="4.5" fill="#fff59d"/>
  <path d="M58 58h12v12H58z" fill="#ff7043"/>
  <path d="M40 28l-10 12 14-2zM88 28l10 12-14-2z" fill="#26c6da"/>
  <path d="M54 22h20v8H54z" fill="#4dd0e1"/>
  <text x="64" y="118" text-anchor="middle" fill="#b2ebf2" font-size="12" font-family="Segoe UI, sans-serif">GEED</text>
</svg>
