<svg xmlns="http://www.w3.org/2000/svg" viewBox="0 0 128 128" role="img" aria-label="Seven style hero">
  <defs>
    <linearGradient id="g" x1="0" y1="0" x2="1" y2="1">
      <stop offset="0%" stop-color="#90caf9"/>
      <stop offset="100%" stop-color="#1565c0"/>
    </linearGradient>
  </defs>
  <rect width="128" height="128" rx="24" fill="#0b1a2b"/>
  <circle cx="64" cy="64" r="46" fill="url(#g)" opacity="0.22"/>
  <path d="M64 18c-17 0-31 12-31 29v19c0 9 4 15 11 19l5 21h30l5-21c7-4 11-10 11-19V47c0-17-14-29-31-29z" fill="url(#g)"/>
  <path d="M48 44h32v8H48z" fill="#0d47a1"/>
  <circle cx="50" cy="48" r="4.5" fill="#ffe082"/>
  <circle cx="78" cy="48" r="4.5" fill="#ffe082"/>
  <path d="M58 58h12l-3 12h-6z" fill="#ff8a65"/>
  <path d="M64 20l4 18h-8z" fill="#ef5350"/>
  <path d="M36 34l-12-4 6 14zM92 34l12-4-6 14z" fill="#64b5f6"/>
  <text x="64" y="118" text-anchor="middle" fill="#bbdefb" font-size="12" font-family="Segoe UI, sans-serif">SEVEN</text>
</svg>
