<svg xmlns="http://www.w3.org/2000/svg" viewBox="0 0 128 128" role="img" aria-label="Tiga style hero">
  <defs>
    <linearGradient id="g" x1="0" y1="0" x2="1" y2="1">
      <stop offset="0%" stop-color="#81d4fa"/>
      <stop offset="100%" stop-color="#0288d1"/>
    </linearGradient>
  </defs>
  <rect width="128" height="128" rx="24" fill="#0b1a2b"/>
  <circle cx="64" cy="64" r="46" fill="url(#g)" opacity="0.25"/>
  <path d="M64 18c-18 0-32 12-32 30v18c0 8 4 14 10 18l6 20h32l6-20c6-4 10-10 10-18V48c0-18-14-30-32-30z" fill="url(#g)"/>
  <path d="M48 52h32v10H48z" fill="#0d47a1"/>
  <circle cx="50" cy="46" r="5" fill="#fff59d"/>
  <circle cx="78" cy="46" r="5" fill="#fff59d"/>
  <path d="M58 62h12l-2 10h-8z" fill="#ff8a65"/>
  <path d="M40 30l-10-8 4 14zM88 30l10-8-4 14z" fill="#4fc3f7"/>
  <text x="64" y="118" text-anchor="middle" fill="#b3e5fc" font-size="12" font-family="Segoe UI, sans-serif">TIGA</text>
</svg>
