<svg xmlns="http://www.w3.org/2000/svg" viewBox="0 0 128 128" role="img" aria-label="Z style hero">
  <defs>
    <linearGradient id="g" x1="0" y1="0" x2="1" y2="1">
      <stop offset="0%" stop-color="#4fc3f7"/>
      <stop offset="100%" stop-color="#1565c0"/>
    </linearGradient>
  </defs>
  <rect width="128" height="128" rx="24" fill="#0b1a2b"/>
  <circle cx="64" cy="64" r="46" fill="url(#g)" opacity="0.22"/>
  <path d="M64 18c-17 0-31 12-31 29v19c0 9 5 15 12 19l4 21h30l4-21c7-4 12-10 12-19V47c0-17-14-29-31-29z" fill="url(#g)"/>
  <path d="M47 43h34v8H47z" fill="#0d47a1"/>
  <circle cx="50" cy="48" r="4.5" fill="#fff59d"/>
  <circle cx="78" cy="48" r="4.5" fill="#fff59d"/>
  <path d="M56 58h16l-4 12H60z" fill="#ff8a65"/>
  <path d="M42 30c-8 0-16-8-16-8s2 16 10 20M86 30c8 0 16-8 16-8s-2 16-10 20" fill="#29b6f6"/>
  <path d="M58 24h12l-2 10h-8z" fill="#81d4fa"/>
  <text x="64" y="118" text-anchor="middle" fill="#b3e5fc" font-size="12" font-family="Segoe UI, sans-serif">ZETA</text>
</svg>
