<svg xmlns="http://www.w3.org/2000/svg" viewBox="0 0 128 128" role="img" aria-label="Zero style hero">
  <defs>
    <linearGradient id="g" x1="0" y1="0" x2="1" y2="1">
      <stop offset="0%" stop-color="#b3e5fc"/>
      <stop offset="100%" stop-color="#0277bd"/>
    </linearGradient>
  </defs>
  <rect width="128" height="128" rx="24" fill="#0b1a2b"/>
  <circle cx="64" cy="64" r="46" fill="url(#g)" opacity="0.22"/>
  <path d="M64 16c-16 0-30 12-30 28v20c0 10 5 16 12 20l4 22h28l4-22c7-4 12-10 12-20V44c0-16-14-28-30-28z" fill="url(#g)"/>
  <path d="M44 40h40v8H44z" fill="#01579b"/>
  <circle cx="50" cy="48" r="4.5" fill="#fff59d"/>
  <circle cx="78" cy="48" r="4.5" fill="#fff59d"/>
  <path d="M60 58h8v14h-8z" fill="#ff7043"/>
  <path d="M38 28c-8-2-14-10-14-10s4 14 10 18M90 28c8-2 14-10 14-10s-4 14-10 18" fill="#4fc3f7"/>
  <path d="M54 24h20l-4 10h-12z" fill="#81d4fa"/>
  <text x="64" y="118" text-anchor="middle" fill="#b3e5fc" font-size="12" font-family="Segoe UI, sans-serif">ZERO</text>
</svg>
